# xmcd
#
# Track frame offsets:
#	150
#	15121
#	27272
#	41864
#	54672
#	72063
#	87294
#	103152
#	120448
#	132373
#
# Disc length: 1945 seconds
#
# Revision: 1
# Processed by: cddbd v1.5.2PL0 Copyright (c) Steve Scherf et al.
# Submitted via: audiograbber 1.83.01
#
DISCID=7c07970a
DTITLE=Johnny Cash - Silver
DYEAR=1978
DGENRE=Country
TTITLE0=The L and N Don't Stop Here Anymore
TTITLE1=Lonesome To The Bone
TTITLE2=Bull Rider
TTITLE3=I'll Say It's True
TTITLE4=Ghost Riders In The Sky
TTITLE5=Cocaine Blues
TTITLE6=Muddy Waters
TTITLE7=West Canterbury Subdivision Blues
TTITLE8=Lately I Been Leanin' Toward The Blues
TTITLE9=I'm Gonna Sit On The Porch And Pick On My Old Guitar
EXTD=
EXTT0=
EXTT1=
EXTT2=
EXTT3=
EXTT4=
EXTT5=
EXTT6=
EXTT7=
EXTT8=
EXTT9=
PLAYORDER=
